<svg width="17" height="12" viewBox="0 0 17 12" fill="#0CAED5" xmlns="http://www.w3.org/2000/svg">
    <path d="M15.9422 1.06717L5.94217 11.0672C5.88412 11.1253 5.81519 11.1714 5.73932 11.2028C5.66344 11.2343 5.58212 11.2505 5.49998 11.2505C5.41785 11.2505 5.33652 11.2343 5.26064 11.2028C5.18477 11.1714 5.11584 11.1253 5.05779 11.0672L0.682794 6.69217C0.565518 6.57489 0.499634 6.41583 0.499634 6.24998C0.499634 6.08413 0.565518 5.92507 0.682794 5.80779C0.800069 5.69052 0.959129 5.62463 1.12498 5.62463C1.29083 5.62463 1.44989 5.69052 1.56717 5.80779L5.49998 9.74139L15.0578 0.182793C15.1751 0.0655181 15.3341 -0.000366212 15.5 -0.000366211C15.6658 -0.00036621 15.8249 0.0655181 15.9422 0.182793C16.0594 0.300069 16.1253 0.459129 16.1253 0.624981C16.1253 0.790834 16.0594 0.949894 15.9422 1.06717Z" fill="#0CAED5"/>
</svg>
